<?xml version="1.0" encoding="UTF-8"?>
<svg xmlns="http://www.w3.org/2000/svg" xmlns:xlink="http://www.w3.org/1999/xlink" width="2000px" height="2000px" viewBox="0 0 2000 2000" version="1.1">
<g id="surface1">
<path style=" stroke:none;fill-rule:nonzero;fill:rgb(94.901961%,94.901961%,94.901961%);fill-opacity:1;" d="M 2000 1000 C 2000 1274.734375 1887.300781 1525.058594 1706.050781 1706.308594 C 1524.796875 1887.5625 1274.992188 1999.742188 999.742188 1999.742188 C 980.003906 1999.742188 960.269531 1999.222656 941.054688 1997.664062 C 418.074219 1967.539062 0 1530.25 0 1000 C 0 725.265625 112.699219 474.941406 293.429688 293.691406 C 474.683594 112.4375 724.488281 0.257812 999.742188 0.257812 C 1274.992188 0.257812 1524.796875 112.4375 1706.050781 293.691406 C 1880.03125 467.671875 1991.171875 705.53125 1998.960938 967.800781 C 2000 978.707031 2000 989.09375 2000 1000 Z M 2000 1000 "/>
<path style=" stroke:none;fill-rule:nonzero;fill:rgb(77.64706%,77.64706%,77.64706%);fill-opacity:1;" d="M 2000 968.839844 L 2000 1000 C 2000 1274.734375 1887.300781 1525.058594 1706.050781 1706.308594 C 1524.796875 1887.5625 1274.992188 1999.742188 999.742188 1999.742188 L 943.132812 1999.742188 C 943.132812 1999.742188 941.574219 1998.183594 941.054688 1997.664062 C 759.285156 1816.410156 578.03125 1635.160156 396.261719 1452.871094 C 378.082031 1437.289062 366.65625 1414.4375 366.65625 1388.46875 L 366.65625 654.636719 C 366.65625 548.167969 488.703125 486.886719 573.875 551.285156 L 654.375 611.53125 L 999.742188 870.683594 L 1345.105469 611.53125 L 1425.605469 551.285156 C 1481.691406 509.21875 1552.324219 521.164062 1594.910156 564.269531 C 1729.421875 698.261719 1864.449219 833.289062 1998.960938 967.800781 Z M 2000 968.839844 "/>
<path style=" stroke:none;fill-rule:nonzero;fill:rgb(25.882354%,52.156866%,95.686275%);fill-opacity:1;" d="M 452.871094 1474.683594 L 654.375 1474.683594 L 654.375 985.457031 L 366.65625 769.410156 L 366.65625 1387.953125 C 366.65625 1435.730469 405.609375 1474.164062 452.871094 1474.164062 "/>
<path style=" stroke:none;fill-rule:nonzero;fill:rgb(20.392157%,65.882355%,32.549021%);fill-opacity:1;" d="M 1345.105469 1474.683594 L 1546.613281 1474.683594 C 1594.390625 1474.683594 1632.824219 1435.730469 1632.824219 1388.46875 L 1632.824219 769.929688 L 1345.105469 985.976562 "/>
<path style=" stroke:none;fill-rule:nonzero;fill:rgb(98.431373%,73.725492%,1.568628%);fill-opacity:1;" d="M 1345.105469 611.53125 L 1345.105469 985.457031 L 1632.824219 769.410156 L 1632.824219 654.117188 C 1632.824219 547.128906 1510.777344 486.367188 1425.605469 550.765625 "/>
<path style=" stroke:none;fill-rule:nonzero;fill:rgb(91.764706%,26.274511%,20.784314%);fill-opacity:1;" d="M 654.375 985.457031 L 654.375 611.53125 L 999.742188 870.683594 L 1345.105469 611.53125 L 1345.105469 985.457031 L 999.742188 1244.613281 "/>
<path style=" stroke:none;fill-rule:nonzero;fill:rgb(77.254903%,13.333334%,12.156863%);fill-opacity:1;" d="M 366.65625 654.636719 L 366.65625 769.929688 L 654.375 985.976562 L 654.375 612.046875 L 573.875 551.804688 C 488.183594 487.925781 366.65625 548.6875 366.65625 655.15625 "/>
</g>
</svg>
